<html>
<head>
<meta charset="UTF-8">
<meta name="viewport" content="width=device-width, initial-scale=1.0"/>

<style>
.comment
{
    padding-left: 20px;
    margin-top: 4px;
    margin-right: 4px;
    margin-bottom: 4px;
    border: 2px #000 solid;
}
.submission
{
    border: 4px #00f solid;
    padding-left: 20px;
}
.hidden
{
    display: none;
}
</style>
</head>
<body><div class="submission" id="t3_44m1rz">
    <p class="userinfo">
        <a href="https://www.reddit.com/u/joaopedro735">joaopedro735</a>
        <span class="score"> | 10 points</span>
        <span class="timestamp"> | Feb 07 2016 15:42:48</span>
    </p>
    <strong>[Movie] Ted (2012) 1080p (x264)</strong>
    <p><p>Link: https://mega.nz/#!SNUHhC7A!i58QLoXEBT_Ctb_FG_yhs_zoQygzQibjoxRQKSei0m4</p>
<blockquote>
<p>General</p>
</blockquote>
<p>Complete name               : Ted.2012.UNRATED.1080p.BluRay.x264-WEST.mkv</p>
<p>Format                      : Matroska</p>
<p>Format version              : Version 4 / Version 2</p>
<p>File size                   : 2.43 GiB</p>
<p>Duration                    : 1h 52mn</p>
<p>Overall bit rate            : 3 103 Kbps</p>
<p>Encoded date                : UTC 2016-02-07 12:57:57</p>
<p>Writing application         : mkvmerge v8.8.0 ('Wind at my back') 64bit</p>
<p>Writing library             : libebml v1.3.3 + libmatroska v1.4.4</p>
<blockquote>
<p>Video</p>
</blockquote>
<p>ID                          : 1</p>
<p>Format                      : AVC</p>
<p>Format/Info                 : Advanced Video Codec</p>
<p>Format profile              : High@L4.1</p>
<p>Format settings, CABAC      : Yes</p>
<p>Format settings, ReFrames   : 4 frames</p>
<p>Codec ID                    : V_MPEG4/ISO/AVC</p>
<p>Duration                    : 1h 52mn</p>
<p>Bit rate                    : 2 462 Kbps</p>
<p>Width                       : 1 920 pixels</p>
<p>Height                      : 1 040 pixels</p>
<p>Display aspect ratio        : 1.85:1</p>
<p>Frame rate mode             : Constant</p>
<p>Frame rate                  : 23.976 (24000/1001) fps</p>
<p>Color space                 : YUV</p>
<p>Chroma subsampling          : 4:2:0</p>
<p>Bit depth                   : 8 bits</p>
<p>Scan type                   : Progressive</p>
<p>Bits/(Pixel*Frame)          : 0.051</p>
<p>Stream size                 : 1.93 GiB (79%)</p>
<p>Writing library             : x264 core 142 r2431 ac76440</p>
<p>Encoding settings           : cabac=1 / ref=4 / deblock=1:-2:-1 / analyse=0x3:0x133 / me=umh / subme=9 / psy=1 / psy_rd=1.00:0.05 / mixed_ref=1 / me_range=24 / chroma_me=1 / trellis=2 / 8x8dct=1 / cqm=0 / deadzone=21,11 / fast_pskip=1 / chroma_qp_offset=0 / threads=12 / lookahead_threads=2 / sliced_threads=0 / nr=0 / decimate=1 / interlaced=0 / bluray_compat=0 / constrained_intra=0 / bframes=8 / b_pyramid=2 / b_adapt=2 / b_bias=0 / direct=3 / weightb=1 / open_gop=0 / weightp=2 / keyint=240 / keyint_min=23 / scenecut=40 / intra_refresh=0 / rc_lookahead=40 / rc=2pass / mbtree=1 / bitrate=2462 / ratetol=1.0 / qcomp=0.60 / qpmin=10 / qpmax=61 / qpstep=4 / cplxblur=20.0 / qblur=0.5 / vbv_maxrate=62500 / vbv_bufsize=78125 / nal_hrd=none / filler=0 / ip_ratio=1.40 / aq=1:1.00</p>
<p>Default                     : Yes</p>
<p>Forced                      : No</p>
<blockquote>
<p>Audio</p>
</blockquote>
<p>ID                          : 2</p>
<p>Format                      : AC-3</p>
<p>Format/Info                 : Audio Coding 3</p>
<p>Mode extension              : CM (complete main)</p>
<p>Format settings, Endianness : Big</p>
<p>Codec ID                    : A_AC3</p>
<p>Duration                    : 1h 52mn</p>
<p>Bit rate mode               : Constant</p>
<p>Bit rate                    : 640 Kbps</p>
<p>Channel(s)                  : 6 channels</p>
<p>Channel positions           : Front: L C R, Side: L R, LFE</p>
<p>Sampling rate               : 48.0 KHz</p>
<p>Frame rate                  : 31.250 fps (1536 spf)</p>
<p>Compression mode            : Lossy</p>
<p>Stream size                 : 514 MiB (21%)</p>
<p>Default                     : Yes</p>
<p>Forced                      : No</p>
<blockquote>
<p>Text</p>
</blockquote>
<p>ID                          : 3</p>
<p>Format                      : UTF-8</p>
<p>Codec ID                    : S_TEXT/UTF8</p>
<p>Codec ID/Info               : UTF-8 Plain Text</p>
<p>Duration                    : 1h 46mn</p>
<p>Bit rate                    : 79 bps</p>
<p>Count of elements           : 1933</p>
<p>Stream size                 : 62.2 KiB (0%)</p>
<p>Language                    : English</p>
<p>Default                     : No</p>
<p>Forced                      : No</p></p>
    <p class="toolbar">
        <a href="https://www.reddit.com/r/megalinks/comments/44m1rz">permalink</a>
    </p>
</div>

</body>

<script>
function toggle_collapse(comment_div)
{
    var button = comment_div.getElementsByClassName("toggle_hide_button")[0];
    var collapsible = comment_div.getElementsByClassName("collapsible")[0];
    if (collapsible.classList.contains("hidden"))
    {
        collapsible.classList.remove("hidden");
        button.innerText = "[-]";
    }
    else
    {
        collapsible.classList.add("hidden");
        button.innerText = "[+]";
    }
}
</script>
</html>
